<svg width="50" height="50" viewBox="0 0 50 50" fill="none" xmlns="http://www.w3.org/2000/svg">
<g id="vuesax/linear/moneys">
<g id="Group">
<path id="Vector" d="M40.2083 16.5V27.2292C40.2083 33.6459 36.5417 36.3958 31.0417 36.3958H12.7291C11.7916 36.3958 10.8958 36.3126 10.0625 36.1251C9.54164 36.0417 9.04166 35.8959 8.58332 35.7292C5.45832 34.5626 3.56248 31.8542 3.56248 27.2292V16.5C3.56248 10.0833 7.22914 7.33337 12.7291 7.33337H31.0417C35.7083 7.33337 39.0625 9.31253 39.9583 13.8334C40.1041 14.6667 40.2083 15.5208 40.2083 16.5Z" stroke="#00C4F4" stroke-width="1.5" stroke-miterlimit="10" stroke-linecap="round" stroke-linejoin="round"/>
<path id="Vector_2" d="M46.4603 22.7505V33.4797C46.4603 39.8963 42.7936 42.6463 37.2936 42.6463H18.9811C17.4394 42.6463 16.0436 42.438 14.8353 41.9797C12.3561 41.063 10.6686 39.1672 10.0644 36.1256C10.8978 36.3131 11.7936 36.3963 12.7311 36.3963H31.0436C36.5436 36.3963 40.2103 33.6463 40.2103 27.2297V16.5005C40.2103 15.5213 40.1269 14.6464 39.9603 13.8339C43.9186 14.6672 46.4603 17.4588 46.4603 22.7505Z" stroke="#00C4F4" stroke-width="1.5" stroke-miterlimit="10" stroke-linecap="round" stroke-linejoin="round"/>
<path id="Vector_3" d="M21.8711 27.3749C24.9087 27.3749 27.3711 24.9125 27.3711 21.8749C27.3711 18.8373 24.9087 16.3749 21.8711 16.3749C18.8335 16.3749 16.3711 18.8373 16.3711 21.8749C16.3711 24.9125 18.8335 27.3749 21.8711 27.3749Z" stroke="#00C4F4" stroke-width="1.5" stroke-miterlimit="10" stroke-linecap="round" stroke-linejoin="round"/>
<path id="Vector_4" d="M9.95897 17.2919V26.4586" stroke="#00C4F4" stroke-width="1.5" stroke-miterlimit="10" stroke-linecap="round" stroke-linejoin="round"/>
<path id="Vector_5" d="M33.7949 17.2924V26.4591" stroke="#00C4F4" stroke-width="1.5" stroke-miterlimit="10" stroke-linecap="round" stroke-linejoin="round"/>
</g>
</g>
</svg>
